<svg width="32" height="32" viewBox="0 0 32 32" xmlns="http://www.w3.org/2000/svg">
  <defs>
    <linearGradient id="gradient" x1="0%" y1="0%" x2="100%" y2="100%">
      <stop offset="0%" stop-color="#ff3e9d" />
      <stop offset="100%" stop-color="#9d00ff" />
    </linearGradient>
  </defs>
  <rect x="0" y="0" width="32" height="32" rx="6" fill="#1e1e1e" />
  <path d="M6 10C6 8.89543 6.89543 8 8 8H24C25.1046 8 26 8.89543 26 10V22C26 23.1046 25.1046 24 24 24H8C6.89543 24 6 23.1046 6 22V10Z" fill="url(#gradient)" />
  <path d="M11 16.5C11 14.567 12.567 13 14.5 13C16.433 13 18 14.567 18 16.5C18 18.433 16.433 20 14.5 20C12.567 20 11 18.433 11 16.5Z" fill="#1e1e1e" />
  <path d="M21 15.4C21 14.6268 21.6268 14 22.4 14C23.1732 14 23.8 14.6268 23.8 15.4C23.8 16.1732 23.1732 16.8 22.4 16.8C21.6268 16.8 21 16.1732 21 15.4Z" fill="#1e1e1e" />
</svg>